<svg width="96" height="96" viewBox="0 0 96 96" xmlns="http://www.w3.org/2000/svg" aria-label="Ícone Ética">
  <!-- Cabeça -->
  <circle cx="48" cy="18" r="8" fill="currentColor"/>

  <!-- Corpo -->
  <rect x="44" y="28" width="8" height="28" rx="4" fill="currentColor"/>

  <!-- Braços -->
  <rect x="20" y="32" width="24" height="6" rx="3" fill="currentColor"/>
  <rect x="52" y="32" width="24" height="6" rx="3" fill="currentColor"/>

  <!-- Balança esquerda -->
  <line x1="24" y1="38" x2="24" y2="54" stroke="currentColor" stroke-width="2"/>
  <line x1="18" y1="54" x2="30" y2="54" stroke="currentColor" stroke-width="2"/>
  <path d="M18 54 L14 62 H22 Z" fill="currentColor"/>
  <path d="M30 54 L26 62 H34 Z" fill="currentColor"/>

  <!-- Balança direita -->
  <line x1="72" y1="38" x2="72" y2="54" stroke="currentColor" stroke-width="2"/>
  <line x1="66" y1="54" x2="78" y2="54" stroke="currentColor" stroke-width="2"/>
  <path d="M66 54 L62 62 H70 Z" fill="currentColor"/>
  <path d="M78 54 L74 62 H82 Z" fill="currentColor"/>

  <!-- Pernas -->
  <rect x="38" y="56" width="6" height="22" rx="3" fill="currentColor"/>
  <rect x="52" y="56" width="6" height="22" rx="3" fill="currentColor"/>
</svg>
